<?xml version="1.0" encoding="UTF-8"?>
<svg width="16px" height="16px" viewBox="0 0 16 16" version="1.1" xmlns="http://www.w3.org/2000/svg" xmlns:xlink="http://www.w3.org/1999/xlink">
    <!-- Generator: Sketch 47.1 (45422) - http://www.bohemiancoding.com/sketch -->
    <title>Icon /  Nav / Certification</title>
    <desc>Created with Sketch.</desc>
    <defs></defs>
    <g id="Icon-图标" stroke="none" stroke-width="1" fill="none" fill-rule="evenodd">
        <g id="Icon-/--Nav-/-Certification" fill="#9A9A9A">
            <path d="M13.3450958,3.50354808 C12.0515626,1.96674695 10.1088265,1 7.91358025,1 C4.13392593,1 1,4.13392593 1,8.08641975 C1,11.8660741 4.13392593,15 7.91358025,15 C11.8660741,15 15,11.8660741 15,8.08641975 C15,6.59431912 14.5533755,5.21887488 13.7846923,4.08465285 L7.58310317,10.455647 C7.52145175,10.5189825 7.41879607,10.5134163 7.35620556,10.4457969 L4.55178616,7.41605454 C4.48812549,7.34727901 4.4837927,7.22437863 4.52574793,7.16478696 L4.85955288,6.69066265 C4.90883303,6.62066693 5.01114614,6.61381889 5.07046621,6.66127853 L7.34997821,8.48502617 C7.41718228,8.53879349 7.52283196,8.53788194 7.5952885,8.47487217 L13.2670278,3.54260464 C13.2899944,3.52263242 13.3168472,3.50944651 13.3450958,3.50354808 Z" id="Combined-Shape"></path>
        </g>
    </g>
</svg>