<?xml version="1.0" encoding="UTF-8"?>
<svg width="16px" height="16px" viewBox="0 0 16 16" version="1.1" xmlns="http://www.w3.org/2000/svg" xmlns:xlink="http://www.w3.org/1999/xlink">
    <!-- Generator: Sketch 47.1 (45422) - http://www.bohemiancoding.com/sketch -->
    <title>Icon /  Nav / Profile</title>
    <desc>Created with Sketch.</desc>
    <defs></defs>
    <g id="Icon-图标" stroke="none" stroke-width="1" fill="none" fill-rule="evenodd">
        <g id="Icon-/--Nav-/-Profile" fill="#9A9A9A">
            <path d="M5.66666667,8.46666667 C6.6,10.3333333 4.73333333,11.2666667 4.73333333,11.2666667 C4.73333333,11.2666667 1,12.7356051 1,13.1333333 L1,14.5 L1,14.5 C1,14.7761424 1.22385763,15 1.5,15 L14.5,15 L14.5,15 C14.7761424,15 15,14.7761424 15,14.5 L15,13.1333333 C15,12.7356051 11.2666667,11.2666667 11.2666667,11.2666667 C11.2666667,11.2666667 9.4,10.3333333 10.3333333,8.46666667 C10.8942018,7.34492982 11.2666667,6.6 11.2666667,4.73333333 C11.2666667,2.86666667 9.86666667,1 8,1 C6.13333333,1 4.73333333,2.86666667 4.73333333,4.73333333 C4.73333333,6.6 5.10579824,7.34492982 5.66666667,8.46666667 Z" id="Fill-24"></path>
        </g>
    </g>
</svg>