<?xml version="1.0" encoding="UTF-8"?>
<svg width="16px" height="16px" viewBox="0 0 16 16" version="1.1" xmlns="http://www.w3.org/2000/svg" xmlns:xlink="http://www.w3.org/1999/xlink">
    <!-- Generator: Sketch 47.1 (45422) - http://www.bohemiancoding.com/sketch -->
    <title>Icon /  Nav / Setting</title>
    <desc>Created with Sketch.</desc>
    <defs></defs>
    <g id="Icon-图标" stroke="none" stroke-width="1" fill="none" fill-rule="evenodd">
        <g id="Icon-/--Nav-/-Setting" fill="#9A9A9A">
            <path d="M11.4765125,3.10927398 L12.6169913,1.9687951 C12.708832,1.87695441 12.8103434,1.82140493 12.9213107,1.80259728 C13.0321601,1.78367177 13.1203959,1.80668741 13.1854497,1.87174123 L14.1282588,2.81455027 C14.1933126,2.8796041 14.2163282,2.96783993 14.1974027,3.07868932 C14.1785951,3.18965655 14.1230456,3.29116797 14.0312049,3.38300866 L12.8907065,4.5235071 C13.4055121,5.24643956 13.7640422,6.08837438 13.91701,7 L15.5294118,7 C15.6592941,7 15.7703529,7.0325 15.8621176,7.09766667 C15.9541176,7.16266667 16,7.24133333 16,7.33333333 L16,8.66666667 C16,8.75866667 15.9541176,8.83733333 15.8621176,8.90233333 C15.7703529,8.9675 15.6592941,9 15.5294118,9 L13.9170774,9 C13.7641587,9.91169081 13.4056404,10.7536605 12.8908202,11.4766066 L14.0312049,12.6169913 C14.1230456,12.708832 14.1785951,12.8103434 14.1974027,12.9213107 C14.2164946,13.0323264 14.1933126,13.1203959 14.1282588,13.1854497 L13.1854497,14.1282588 C13.1203959,14.1933126 13.0323264,14.2164946 12.9213107,14.1974027 C12.8103434,14.1785951 12.708832,14.1230456 12.6169913,14.0312049 L11.4765944,12.890808 C10.753658,13.4056042 9.91169589,13.764118 9,13.9170526 L9,15.5294118 C9,15.6595294 8.9675,15.7703529 8.90233333,15.8621176 C8.83733333,15.9541176 8.75866667,16 8.66666667,16 L7.33333333,16 C7.24133333,16 7.16266667,15.9541176 7.09766667,15.8621176 C7.0325,15.7703529 7,15.6595294 7,15.5294118 L7,13.9170439 C6.08833875,13.7641008 5.2463839,13.4055771 4.523443,12.8907706 L3.38300866,14.0312049 C3.29100159,14.123212 3.18965655,14.1785951 3.07868932,14.1974027 C2.96767355,14.2164946 2.8796041,14.1933126 2.81455027,14.1282588 L1.87174123,13.1854497 C1.80668741,13.1203959 1.7835054,13.0323264 1.80259728,12.9213107 C1.82140493,12.8103434 1.87678803,12.7089984 1.9687951,12.6169913 L3.10921356,11.4765729 C2.59438691,10.7536343 2.23585517,9.91167662 2.0829285,9 L0.470588235,9 C0.340705882,9 0.229647059,8.9675 0.137882353,8.90233333 C0.0458823529,8.83733333 0,8.75866667 0,8.66666667 L0,7.33333333 C0,7.24133333 0.0458823529,7.16266667 0.137882353,7.09766667 C0.229647059,7.0325 0.340705882,7 0.470588235,7 L2.08299587,7 C2.23597172,6.08838857 2.59451531,5.24646578 3.1093273,4.52354086 L1.9687951,3.38300866 C1.87695441,3.29116797 1.82140493,3.18965655 1.80259728,3.07868932 C1.7835054,2.96767355 1.80668741,2.8796041 1.87174123,2.81455027 L2.81455027,1.87174123 C2.8796041,1.80668741 2.96767355,1.7835054 3.07868932,1.80259728 C3.18965655,1.82140493 3.29116797,1.87695441 3.38300866,1.9687951 L4.52352497,3.10931141 C5.24644755,2.59447933 6.08837321,2.23592767 7,2.08296829 L7,0.470588235 C7,0.340705882 7.0325,0.229647059 7.09766667,0.137882353 C7.16266667,0.0461176471 7.24133333,-1.42108547e-14 7.33333333,-1.42108547e-14 L8.66666667,-1.42108547e-14 C8.75866667,-1.42108547e-14 8.83733333,0.0461176471 8.90233333,0.137882353 C8.9675,0.229647059 9,0.340705882 9,0.470588235 L9,2.08295967 C9.91166144,2.23591049 10.7535944,2.59445227 11.4765125,3.10927398 Z M7.99981818,4 C5.79090909,4 4,5.79072727 4,8 C4,10.2090909 5.79090909,12 7.99981818,12 C10.2090909,12 12,10.2090909 12,8 C12,5.79072727 10.2090909,4 7.99981818,4 Z" id="Fill-1"></path>
        </g>
    </g>
</svg>