<?xml version="1.0" encoding="UTF-8"?>
<svg width="16px" height="16px" viewBox="0 0 16 16" version="1.1" xmlns="http://www.w3.org/2000/svg" xmlns:xlink="http://www.w3.org/1999/xlink">
    <!-- Generator: Sketch 47.1 (45422) - http://www.bohemiancoding.com/sketch -->
    <title>Icon /  Nav / Logout</title>
    <desc>Created with Sketch.</desc>
    <defs></defs>
    <g id="Icon-图标" stroke="none" stroke-width="1" fill="none" fill-rule="evenodd">
        <g id="Icon-/--Nav-/-Logout" fill="#9A9A9A">
            <path d="M11,4.97923851 L11,2.67365007 C13.3650049,3.79718259 15,6.20785971 15,9.00024138 C15,12.8661724 11.8661724,16 8,16 C4.13406897,16 1,12.8661724 1,9.00024138 C1,6.207901 2.63507266,3.79725388 5,2.67369991 L5,4.97916899 C3.78558364,5.87272717 3,7.29541895 3,8.89795918 C3,11.6029685 5.23863636,13.7959184 7.99977273,13.7959184 C10.7613636,13.7959184 13,11.6029685 13,8.89795918 C13,7.29546051 12.2144571,5.87280096 11,4.97923851 Z M7.09766667,1.05170588 C7.16266667,1.01729412 7.24133333,1 7.33333333,1 L8.66666667,1 C8.75866667,1 8.83733333,1.01729412 8.90233333,1.05170588 C8.9675,1.08611765 9,1.12776471 9,1.17647059 L9,6.82352941 C9,6.87232353 8.9675,6.91388235 8.90233333,6.94829412 C8.83733333,6.98279412 8.75866667,7 8.66666667,7 L7.33333333,7 C7.24133333,7 7.16266667,6.98279412 7.09766667,6.94829412 C7.0325,6.91388235 7,6.87232353 7,6.82352941 L7,1.17647059 C7,1.12776471 7.0325,1.08611765 7.09766667,1.05170588 Z" id="Fill-1-Copy"></path>
        </g>
    </g>
</svg>